<svg width="24" height="24" viewBox="0 0 24 24" fill="none" xmlns="http://www.w3.org/2000/svg">
<path d="M11.6195 5.38022C13.299 5.38022 14.8816 6.12476 16.0414 7.28866V7.2921C16.0414 6.73318 16.4174 6.31038 16.9372 6.31038H17.0692C17.8893 6.31038 18.0536 7.08379 18.0536 7.32784L18.0571 16.0141C18 16.5834 18.6449 16.8776 19.003 16.5119C20.3952 15.0798 22.0637 9.14279 18.1361 5.7054C14.4732 2.49694 9.55709 3.02698 6.9433 4.82817C4.1652 6.74761 2.38944 10.9873 4.11432 14.9719C5.99801 19.3161 11.383 20.612 14.5881 19.3195C16.2105 18.6644 16.9585 20.8547 15.2721 21.5717C12.7305 22.6559 5.6474 22.5452 2.33926 16.8164C0.104264 12.9466 0.22251 6.13919 6.1527 2.61243C10.6852 -0.087295 16.6656 0.660682 20.2707 4.42462C24.0381 8.36319 23.8202 15.7323 20.1422 18.597C18.4764 19.8998 16.0029 18.6327 16.0208 16.7346L16.0022 16.1159C14.8424 17.2647 13.299 17.9384 11.6195 17.9384C8.29694 17.9384 5.37172 15.0125 5.37172 11.6933C5.37172 8.33844 8.29694 5.38159 11.6195 5.38159V5.38022ZM15.7987 11.4534C15.6729 9.02179 13.8683 7.55746 11.6876 7.55746H11.6051C9.09167 7.55746 7.6954 9.5374 7.6954 11.782C7.6954 14.2989 9.38178 15.8883 11.5948 15.8883C14.0649 15.8883 15.6866 14.0809 15.8049 11.9429L15.7987 11.4534Z" fill="#E80C0C"/>
</svg>
