<svg width="616" height="102" viewBox="0 0 616 102" fill="none" xmlns="http://www.w3.org/2000/svg">
<path d="M20.9968 68.0992L53.2851 51.5024L21.0567 34.9056L0 0.895203L98.2811 51.5024L0 102L20.9968 68.0992Z" fill="#E80C0C"/>
<path d="M315.86 93.9905L317.546 99.2106C314.739 100.256 311.763 100.773 308.768 100.735C304.16 100.735 300.911 99.6523 299.023 97.4872C297.134 95.3221 296.21 91.5996 296.25 86.3197V65.1703H291.183V59.7609H296.25L296.08 42.8254H302.494V59.7609H317.197V65.1504H302.434V86.3197C302.434 89.7467 302.856 92.1077 303.701 93.4028C304.545 94.6978 306.148 95.342 308.509 95.3354C311.02 95.3309 313.51 94.8753 315.86 93.9905Z" fill="black"/>
<path d="M614.314 95.2557L616 100.486C613.192 101.523 610.216 102.036 607.222 102C602.614 102 599.365 100.917 597.477 98.7524C595.588 96.5873 594.647 92.8648 594.654 87.5849V66.4355H589.587V61.046H594.654L594.494 44.1703H600.908V61.046H615.671V66.4355H600.908V87.5849C600.908 91.0118 601.331 93.3728 602.175 94.6679C603.02 95.963 604.622 96.6105 606.983 96.6105C609.488 96.6004 611.971 96.1415 614.314 95.2557Z" fill="black"/>
<path d="M134.429 99.3601V38.8406H135.756L176.084 85.2439V38.8406H182.069V99.3701H180.712L140.704 53.5446V99.3701L134.429 99.3601Z" fill="black"/>
<path d="M233.599 83.5104L238.466 86.0607C237.089 88.8924 235.218 91.4563 232.94 93.6319C230.891 95.5296 228.498 97.0175 225.888 98.0152C223.051 99.0591 220.044 99.5691 217.02 99.5195C209.706 99.5195 203.987 97.1252 199.864 92.3368C195.865 87.8768 193.662 82.0955 193.68 76.1086C193.62 70.5963 195.47 65.2329 198.916 60.9265C200.982 58.1946 203.676 55.9986 206.769 54.5232C209.862 53.0479 213.265 52.3364 216.691 52.4488C224.332 52.4488 230.433 55.3411 234.995 61.1257C238.247 65.2168 239.909 70.3207 239.982 76.4374H199.615C199.546 81.184 201.336 85.7698 204.602 89.2187C206.131 90.833 207.982 92.11 210.035 92.9678C212.087 93.8256 214.297 94.2453 216.522 94.1997C218.795 94.2002 221.051 93.7989 223.185 93.0142C225.199 92.3076 227.065 91.2372 228.691 89.8563C230.638 88.0003 232.292 85.8608 233.599 83.5104ZM233.599 71.4564C233.021 68.7897 231.874 66.2787 230.237 64.0944C228.677 62.1798 226.689 60.6579 224.432 59.6513C222.045 58.5299 219.439 57.9515 216.801 57.9578C212.624 57.8824 208.575 59.4 205.48 62.2016C203.166 64.2538 201.42 67.3387 200.243 71.4564H233.599Z" fill="black"/>
<path d="M245.588 53.5944H252.511L264.48 69.972L276.27 53.5944H283.203L267.912 74.704L285.098 98.324H278.116L264.43 79.5655L250.865 98.3639H243.982L260.939 74.7937L245.588 53.5944Z" fill="black"/>
<path d="M335.052 40.833H365.425V46.7604H341.136V65.7381H365.445V71.7154H341.136V101.422H335.052V40.833Z" fill="black"/>
<path d="M396.236 54.4412C399.471 54.3625 402.684 54.9914 405.649 56.2838C408.615 57.5762 411.261 59.5008 413.403 61.9227C417.45 66.4048 419.661 72.2435 419.596 78.2787C419.532 84.3139 417.196 90.104 413.054 94.4986C408.692 99.1476 403.086 101.472 396.236 101.472C389.387 101.472 383.768 99.1476 379.379 94.4986C375.24 90.1121 372.906 84.3293 372.843 78.3018C372.78 72.2743 374.993 66.4442 379.04 61.9725C381.181 59.5377 383.83 57.6014 386.801 56.3001C389.772 54.9989 392.993 54.3643 396.236 54.4412ZM396.236 60.0797C393.921 60.0548 391.625 60.5133 389.497 61.426C387.368 62.3386 385.455 63.6852 383.878 65.3795C382.199 67.0647 380.876 69.0699 379.988 71.2759C379.101 73.4819 378.666 75.8436 378.711 78.2206C378.682 81.3899 379.483 84.5117 381.035 87.2761C382.511 89.9843 384.715 92.227 387.399 93.7515C390.091 95.2539 393.123 96.0427 396.207 96.0427C399.29 96.0427 402.322 95.2539 405.014 93.7515C407.698 92.227 409.902 89.9843 411.378 87.2761C412.944 84.5155 413.759 81.3935 413.742 78.2206C413.783 75.8414 413.345 73.4782 412.452 71.2721C411.559 69.0659 410.23 67.0619 408.545 65.3795C406.971 63.6899 405.062 62.3462 402.939 61.4337C400.817 60.5213 398.527 60.0602 396.217 60.0797H396.236Z" fill="black"/>
<path d="M428.086 56.583H433.981V62.1319C435.215 60.1261 436.886 58.4237 438.869 57.1508C440.93 55.982 443.272 55.3997 445.641 55.4673C447.446 55.5296 449.205 56.0545 450.749 56.9914L448.045 61.3449C447.101 60.9454 446.076 60.7714 445.053 60.8368C443.875 60.8437 442.713 61.1076 441.648 61.6101C440.584 62.1125 439.642 62.8414 438.889 63.7457C437.085 65.4861 435.742 67.6459 434.978 70.0318C434.171 72.5522 433.981 78.4696 433.981 86.2301V101.372H428.086V56.583Z" fill="black"/>
<path d="M455.606 56.583H461.372V63.3273C462.748 61.126 464.611 59.2687 466.818 57.898C469.875 56.2324 473.311 55.3847 476.793 55.4374C478.921 55.4251 481.028 55.8595 482.977 56.7125C484.808 57.4722 486.444 58.6332 487.765 60.1096C489.222 61.5223 490.323 63.2601 490.977 65.1803C492.902 61.6637 494.647 59.4322 497.52 57.6091C500.393 55.786 504.143 55.4374 507.495 55.4374C510.379 55.3909 513.213 56.2024 515.634 57.7685C518.025 59.3565 519.867 61.642 520.911 64.3136C522.088 67.1229 522.676 71.3235 522.676 76.9156V101.352H516.791V76.9156C516.791 72.1138 516.442 68.8164 515.794 67.0133C515.114 65.2329 513.884 63.715 512.283 62.6798C510.515 61.5478 508.447 60.9717 506.348 61.0261C503.596 61.0171 500.914 61.8823 498.687 63.4967C496.572 64.7831 494.962 66.756 494.129 69.0854C493.061 71.8349 493.011 77.4037 493.011 83.8292V101.352H487.246V78.4397C487.243 74.6972 486.567 70.9857 485.251 67.4815C484.604 65.5517 483.339 63.8885 481.65 62.7495C479.887 61.5556 477.795 60.9425 475.665 60.9962C472.982 61.0074 470.368 61.8497 468.184 63.407C467.027 64.204 464.793 65.3994 462.738 70.3804C461.631 73.1001 461.362 76.7163 461.362 82.3349V101.263H455.596L455.606 56.583Z" fill="black"/>
<path d="M579.452 55.5868V100.356H573.767V92.6357C571.562 95.4022 568.785 97.6617 565.627 99.2604C561.337 101.316 556.509 101.975 551.824 101.144C547.138 100.313 542.832 98.0339 539.514 94.6281C537.321 92.4284 535.595 89.8101 534.438 86.9295C533.281 84.0489 532.718 80.965 532.781 77.8619C532.732 74.7896 533.309 71.7395 534.477 68.8967C535.644 66.0539 537.378 63.4779 539.573 61.3249C541.679 59.1154 544.219 57.3642 547.034 56.1814C549.849 54.9985 552.878 54.4094 555.932 54.4511C559.399 54.401 562.825 55.205 565.907 56.7922C569.037 58.4924 571.726 60.9011 573.757 63.8254V55.5868H579.452ZM556.401 59.99C553.269 59.9678 550.188 60.7886 547.483 62.3663C544.779 63.944 542.549 66.2203 541.03 68.9559C539.449 71.7072 538.616 74.8241 538.616 77.9964C538.616 81.1687 539.449 84.2857 541.03 87.037C542.574 89.8431 544.848 92.1803 547.613 93.8012C550.27 95.3825 553.308 96.2124 556.401 96.2021C559.55 96.2012 562.644 95.3806 565.378 93.8212C568.111 92.3163 570.37 90.0809 571.902 87.3657C573.442 84.5591 574.226 81.4009 574.176 78.2007C574.236 75.8097 573.813 73.4311 572.934 71.2063C572.055 68.9815 570.737 66.9559 569.059 65.25C567.432 63.5415 565.465 62.1912 563.286 61.2854C561.106 60.3797 558.761 59.9385 556.401 59.99Z" fill="black"/>
<path d="M143.198 8.74059L141.826 10.1561C140.688 9.05007 139.576 8.49706 138.489 8.49706C137.798 8.49706 137.204 8.72537 136.706 9.18198C136.218 9.63859 135.974 10.1713 135.974 10.7801C135.974 11.3179 136.178 11.8303 136.584 12.3174C136.99 12.8146 137.844 13.398 139.144 14.0677C140.729 14.8896 141.806 15.6811 142.375 16.4421C142.934 17.2132 143.213 18.0808 143.213 19.0448C143.213 20.4044 142.736 21.5561 141.781 22.4998C140.826 23.4434 139.632 23.9153 138.199 23.9153C137.244 23.9153 136.33 23.7073 135.456 23.2912C134.593 22.8752 133.876 22.3019 133.307 21.5713L134.648 20.0493C135.736 21.2771 136.889 21.891 138.108 21.891C138.961 21.891 139.688 21.617 140.287 21.0691C140.887 20.5211 141.186 19.8768 141.186 19.1361C141.186 18.5273 140.988 17.9844 140.592 17.5075C140.196 17.0407 139.302 16.4522 137.91 15.7419C136.416 14.9708 135.4 14.2098 134.862 13.4589C134.323 12.708 134.054 11.8506 134.054 10.8867C134.054 9.62844 134.481 8.58331 135.334 7.75127C136.198 6.91922 137.285 6.5032 138.596 6.5032C140.12 6.5032 141.654 7.24899 143.198 8.74059Z" fill="#666666"/>
<path d="M148.852 0.780351H151.001V6.92937H154.384V8.75581H151.001V23.4891H148.852V8.75581H145.941V6.92937H148.852V0.780351Z" fill="#666666"/>
<path d="M157.295 6.92937H159.444V14.6613C159.444 16.5486 159.545 17.8474 159.748 18.5577C160.053 19.5724 160.632 20.374 161.486 20.9625C162.349 21.551 163.375 21.8453 164.564 21.8453C165.753 21.8453 166.759 21.5612 167.582 20.993C168.415 20.4146 168.989 19.6586 169.304 18.7251C169.517 18.0859 169.624 16.7313 169.624 14.6613V6.92937H171.803V15.057C171.803 17.3401 171.534 19.06 170.995 20.2167C170.467 21.3735 169.664 22.2816 168.587 22.9412C167.521 23.5906 166.179 23.9153 164.564 23.9153C162.949 23.9153 161.597 23.5906 160.51 22.9412C159.433 22.2816 158.626 21.3684 158.087 20.2015C157.559 19.0245 157.295 17.2589 157.295 14.9048V6.92937Z" fill="#666666"/>
<path d="M193.108 0.536826V23.4891H191.005V20.6429C190.111 21.7286 189.105 22.5454 187.988 23.0934C186.88 23.6413 185.666 23.9153 184.345 23.9153C181.998 23.9153 179.992 23.068 178.326 21.3735C176.669 19.6688 175.841 17.5988 175.841 15.1636C175.841 12.7791 176.68 10.7395 178.356 9.04499C180.032 7.35046 182.049 6.5032 184.406 6.5032C185.768 6.5032 186.997 6.79238 188.094 7.37076C189.202 7.94913 190.172 8.81669 191.005 9.97344V0.536826H193.108ZM184.574 8.55794C183.385 8.55794 182.288 8.8522 181.282 9.44072C180.276 10.0191 179.474 10.8359 178.874 11.8912C178.285 12.9465 177.99 14.0626 177.99 15.2397C177.99 16.4066 178.29 17.5227 178.889 18.5881C179.489 19.6536 180.291 20.4856 181.297 21.0843C182.313 21.6728 183.4 21.9671 184.559 21.9671C185.727 21.9671 186.834 21.6728 187.881 21.0843C188.927 20.4958 189.73 19.6992 190.289 18.6947C190.858 17.6901 191.142 16.5588 191.142 15.3006C191.142 13.3828 190.507 11.7796 189.237 10.4909C187.977 9.20227 186.423 8.55794 184.574 8.55794Z" fill="#666666"/>
<path d="M198.701 0.110657C199.189 0.110657 199.605 0.283154 199.951 0.628148C200.296 0.973142 200.469 1.38917 200.469 1.87622C200.469 2.35312 200.296 2.76407 199.951 3.10906C199.605 3.45406 199.189 3.62655 198.701 3.62655C198.224 3.62655 197.812 3.45406 197.467 3.10906C197.121 2.76407 196.948 2.35312 196.948 1.87622C196.948 1.38917 197.121 0.973142 197.467 0.628148C197.812 0.283154 198.224 0.110657 198.701 0.110657ZM197.634 6.92937H199.783V23.4891H197.634V6.92937Z" fill="#666666"/>
<path d="M212.051 6.5032C214.601 6.5032 216.714 7.42657 218.391 9.2733C219.915 10.9577 220.677 12.9515 220.677 15.2549C220.677 17.5684 219.869 19.5927 218.254 21.3278C216.648 23.0528 214.581 23.9153 212.051 23.9153C209.511 23.9153 207.433 23.0528 205.818 21.3278C204.213 19.5927 203.41 17.5684 203.41 15.2549C203.41 12.9617 204.172 10.9729 205.696 9.28852C207.372 7.43164 209.491 6.5032 212.051 6.5032ZM212.051 8.58838C210.283 8.58838 208.764 9.24286 207.494 10.5518C206.224 11.8608 205.589 13.4437 205.589 15.3006C205.589 16.4979 205.879 17.614 206.458 18.649C207.037 19.684 207.819 20.4856 208.805 21.0538C209.79 21.6119 210.873 21.891 212.051 21.891C213.23 21.891 214.312 21.6119 215.297 21.0538C216.283 20.4856 217.065 19.684 217.644 18.649C218.223 17.614 218.513 16.4979 218.513 15.3006C218.513 13.4437 217.873 11.8608 216.592 10.5518C215.323 9.24286 213.809 8.58838 212.051 8.58838Z" fill="#666666"/>
</svg>
