<svg width="24" height="24" viewBox="0 0 24 24" fill="none" xmlns="http://www.w3.org/2000/svg">
<g clip-path="url(#clip0_107_45)">
<path d="M10.1467 13.7599C11.5383 15.1717 13.2222 16.2617 15.08 16.9533L17.5933 14.9533C17.6678 14.902 17.7562 14.8745 17.8467 14.8745C17.9371 14.8745 18.0255 14.902 18.1 14.9533L22.7667 17.9599C22.9438 18.0665 23.0938 18.2127 23.2047 18.3871C23.3157 18.5616 23.3845 18.7594 23.4059 18.965C23.4272 19.1706 23.4004 19.3784 23.3277 19.5719C23.2549 19.7654 23.1382 19.9393 22.9867 20.0799L20.8 22.24C20.4868 22.5494 20.102 22.7764 19.6797 22.9009C19.2574 23.0254 18.8109 23.0434 18.38 22.9533C14.0815 22.0655 10.1194 19.9863 6.94666 16.9533C3.84432 13.8901 1.69751 9.99251 0.766663 5.73328C0.674707 5.30904 0.6939 4.86824 0.82238 4.4536C0.950861 4.03896 1.18427 3.66453 1.5 3.36662L3.76666 1.17995C3.90693 1.03581 4.07799 0.925265 4.26703 0.8566C4.45607 0.787935 4.65819 0.762927 4.85827 0.783448C5.05835 0.803968 5.25119 0.869486 5.42235 0.975095C5.59352 1.0807 5.73858 1.22367 5.84666 1.39328L8.95333 5.99995C9.00691 6.07229 9.03584 6.15993 9.03584 6.24995C9.03584 6.33997 9.00691 6.42761 8.95333 6.49995L6.90666 8.95995C7.61705 10.7806 8.72382 12.4202 10.1467 13.7599V13.7599Z" fill="#E80C0C"/>
</g>
<defs>
<clipPath id="clip0_107_45">
<rect width="24" height="24" fill="white"/>
</clipPath>
</defs>
</svg>
