<svg width="24" height="24" viewBox="0 0 24 24" fill="none" xmlns="http://www.w3.org/2000/svg">
<g clip-path="url(#clip0_107_41)">
<path d="M0 24L1.69627 17.8403C0.647564 16.0323 0.0974211 13.9848 0.103152 11.8916C0.103152 5.3327 5.46704 0 12.0516 0C15.2493 0 18.2521 1.23764 20.5043 3.48479C22.7622 5.73194 24.0057 8.72053 24 11.8973C24 18.4563 18.6361 23.789 12.0458 23.789H12.0401C10.0401 23.789 8.07449 23.2871 6.32664 22.3403L0 24ZM6.63037 20.1901L6.9914 20.4068C8.51575 21.308 10.2636 21.7814 12.0458 21.7871H12.0516C17.5243 21.7871 21.9828 17.3555 21.9828 11.903C21.9828 9.26236 20.9513 6.78137 19.0773 4.91065C17.2034 3.03992 14.7049 2.01331 12.0516 2.01331C6.57879 2.0076 2.12034 6.43916 2.12034 11.8916C2.12034 13.7567 2.64183 15.576 3.63897 17.1502L3.87392 17.5266L2.87106 21.1711L6.63037 20.1901Z" fill="white"/>
<path d="M0.418213 23.5837L2.05718 17.635C1.04285 15.8955 0.509903 13.9164 0.509903 11.8974C0.515634 5.56657 5.69041 0.416382 12.0514 0.416382C15.1403 0.416382 18.0342 1.6141 20.2119 3.7814C22.3895 5.9487 23.5872 8.83463 23.5872 11.9031C23.5872 18.2339 18.4067 23.3841 12.0514 23.3841H12.0457C10.1145 23.3841 8.21763 22.8993 6.53282 21.9867L0.418213 23.5837Z" fill="url(#paint0_linear_107_41)"/>
<path d="M0 24L1.69627 17.8403C0.647564 16.0323 0.0974211 13.9848 0.103152 11.8916C0.103152 5.3327 5.46704 0 12.0516 0C15.2493 0 18.2521 1.23764 20.5043 3.48479C22.7622 5.73194 24.0057 8.72053 24 11.8973C24 18.4563 18.6361 23.789 12.0458 23.789H12.0401C10.0401 23.789 8.07449 23.2871 6.32664 22.3403L0 24ZM6.63037 20.1901L6.9914 20.4068C8.51575 21.308 10.2636 21.7814 12.0458 21.7871H12.0516C17.5243 21.7871 21.9828 17.3555 21.9828 11.903C21.9828 9.26236 20.9513 6.78137 19.0773 4.91065C17.2034 3.03992 14.7049 2.01331 12.0516 2.01331C6.57879 2.0076 2.12034 6.43916 2.12034 11.8916C2.12034 13.7567 2.64183 15.576 3.63897 17.1502L3.87392 17.5266L2.87106 21.1711L6.63037 20.1901Z" fill="url(#paint1_linear_107_41)"/>
<path fill-rule="evenodd" clip-rule="evenodd" d="M9.06576 6.9183C8.84226 6.42211 8.60731 6.4107 8.39527 6.405C8.22335 6.39929 8.02278 6.39929 7.82221 6.39929C7.62163 6.39929 7.30072 6.47344 7.02564 6.77001C6.75057 7.06659 5.98267 7.78522 5.98267 9.251C5.98267 10.7111 7.0543 12.1255 7.2033 12.3251C7.35229 12.5248 9.27206 15.6217 12.3036 16.8137C14.8251 17.8061 15.3408 17.6065 15.8852 17.5552C16.4297 17.5039 17.6503 16.8366 17.9024 16.1407C18.1488 15.4449 18.1488 14.8518 18.0743 14.7263C17.9998 14.6008 17.7993 14.5267 17.5013 14.3784C17.2033 14.2301 15.7362 13.5115 15.4612 13.4088C15.1861 13.3118 14.9855 13.2605 14.7907 13.5571C14.5901 13.8537 14.017 14.521 13.8451 14.7206C13.6732 14.9202 13.4956 14.943 13.1976 14.7947C12.8996 14.6464 11.9368 14.3328 10.7964 13.3175C9.90816 12.5305 9.30645 11.5552 9.13453 11.2586C8.96261 10.962 9.11733 10.8023 9.26633 10.654C9.39814 10.5229 9.56433 10.3061 9.71332 10.135C9.86232 9.96393 9.91389 9.83846 10.0113 9.63884C10.1087 9.43922 10.0629 9.26811 9.98839 9.11982C9.9139 8.97724 9.32937 7.50576 9.06576 6.9183Z" fill="white"/>
</g>
<defs>
<linearGradient id="paint0_linear_107_41" x1="12.0021" y1="23.5825" x2="12.0021" y2="0.415571" gradientUnits="userSpaceOnUse">
<stop stop-color="#20B038"/>
<stop offset="1" stop-color="#60D66A"/>
</linearGradient>
<linearGradient id="paint1_linear_107_41" x1="12.0023" y1="23.9977" x2="12.0023" y2="0" gradientUnits="userSpaceOnUse">
<stop stop-color="#F9F9F9"/>
<stop offset="1" stop-color="white"/>
</linearGradient>
<clipPath id="clip0_107_41">
<rect width="24" height="24" rx="6" fill="white"/>
</clipPath>
</defs>
</svg>
